
<svg xmlns="http://www.w3.org/2000/svg" xmlns:xlink="http://www.w3.org/1999/xlink" version="1.1" x="0px" y="0px" viewBox="0 0 100 125" enable-background="new 0 0 100 100" xml:space="preserve"><g display="none"><path display="inline" fill="#000000" d="M95,5v90H5V5H95 M95.25,4.75H95H5H4.75V5v90v0.25H5h90h0.25V95V5V4.75L95.25,4.75z"/></g><g><g><path d="M50.932,61.328c-0.084-0.269-0.278-0.49-0.534-0.608c-0.133-0.062-0.277-0.093-0.421-0.093    c-0.132,0-0.264,0.026-0.389,0.079l-6.036,2.546c-0.25,0.105-0.446,0.308-0.544,0.56l-1.731,4.471l-2.789,2.232    c-0.058,0.046-0.11,0.099-0.156,0.156l-0.6,0.75c-0.334,0.418-0.28,1.025,0.122,1.377l1.354,1.184l-1.671,7.521    c-0.041,0.183-0.029,0.373,0.033,0.55l1.35,3.825c0.141,0.4,0.519,0.667,0.943,0.667h3.375c0.317,0,0.615-0.15,0.803-0.405    c0.189-0.255,0.245-0.583,0.153-0.886l-1.498-4.924l1.691-7.61l6.977-8.498c0.214-0.261,0.282-0.612,0.181-0.933L50.932,61.328z     M85.127,42.124c-0.052-0.211-0.171-0.4-0.34-0.538l-7.501-6.112c-0.178-0.145-0.402-0.225-0.632-0.225h-3.5    c-0.497,0-0.919,0.365-0.99,0.857c-0.071,0.492,0.231,0.962,0.708,1.102l1.626,0.478l1.521,4.507    c0.055,0.162,0.15,0.307,0.277,0.422l1.313,1.188c0.17,0.154,0.388,0.245,0.618,0.257l2.179,0.116l0.639,3.911    c0.072,0.442,0.43,0.782,0.875,0.832l3.584,0.404c0.037,0.004,0.075,0.006,0.112,0.006c0.286,0,0.56-0.122,0.751-0.339    c0.216-0.245,0.298-0.581,0.221-0.898L85.127,42.124z M91.311,16.276h-0.007c-0.011,0-0.023,0-0.034,0.001    c-0.197,0.006-0.379,0.07-0.531,0.174c-0.049,0.034-0.096,0.073-0.14,0.116c0,0,0,0,0,0c-0.001,0.001-0.001,0.001-0.002,0.002    c0,0,0,0-0.001,0c0,0,0,0.001-0.001,0.001c-0.943,0.945-2.065,1.556-2.858,1.556c-0.262,0-0.482-0.067-0.674-0.204    c-0.346-0.247-0.671-0.555-1.015-0.882c-0.747-0.708-1.593-1.511-2.844-1.804c-0.506-0.119-1.035-0.179-1.571-0.179    c-0.191,0-0.384,0.008-0.578,0.023l-0.069,0.005c-0.122,0.009-0.244,0.019-0.368,0.037c-0.581,0.082-1.147,0.239-1.685,0.46    l-13.515-4.653c-0.107-0.037-0.216-0.055-0.325-0.055c-0.258,0-0.51,0.1-0.701,0.286L51.434,23.875h-3.341    c-0.229,0-0.451,0.079-0.629,0.223l-5.25,4.25c-0.098,0.079-0.179,0.176-0.241,0.285L31.431,47.263l-6.339,1.644    c-0.385,0.1-0.674,0.418-0.737,0.811l-0.125,0.788l-9.092,10.29l-2.773,0.12l-0.999-1.893l1.474-3.229l4.475-0.408    c0.399-0.036,0.76-0.226,1.017-0.533c0.256-0.309,0.377-0.698,0.341-1.098c-0.071-0.776-0.711-1.363-1.49-1.363l-5.481,0.493    c-0.535,0.048-1.006,0.382-1.229,0.871l-2.14,4.691c-0.195,0.426-0.181,0.908,0.038,1.323l1.786,3.386    c0.183,0.345,0.487,0.603,0.862,0.726c0.151,0.049,0.306,0.073,0.462,0.073l4.424-0.19c0.404-0.017,0.791-0.2,1.061-0.505    l6.386-7.229l-0.746,4.687c-0.032,0.198-0.003,0.401,0.083,0.583l3.735,7.936L23.812,72.5c-0.334,0.418-0.28,1.025,0.122,1.377    l1.554,1.359l-1.871,8.421c-0.041,0.183-0.029,0.373,0.033,0.55l1.5,4.25c0.141,0.4,0.519,0.667,0.943,0.667h3.75    c0.317,0,0.615-0.15,0.804-0.405c0.189-0.255,0.245-0.583,0.153-0.887l-1.673-5.498l1.867-8.4l8.475-6.78    c0.138-0.11,0.244-0.255,0.308-0.42l1.878-4.852l6.316-2.665l12.262-5.173c0.143-0.06,0.27-0.153,0.371-0.271l6.482-7.562    l1.259-0.435v4.387l-4.33,1.516c-0.423,0.148-0.696,0.559-0.668,1.006l0.25,4c0.02,0.326,0.199,0.622,0.478,0.792    c0.159,0.097,0.339,0.146,0.52,0.146c0.137,0,0.274-0.028,0.403-0.085l6.25-2.75c0.238-0.105,0.426-0.298,0.523-0.538    l4.135-10.161c0.096-0.237,0.098-0.502,0.006-0.74l-1.885-4.839c-0.14-0.36-0.476-0.607-0.862-0.634l-3.68-0.258l0.597-3.58    c0.033-0.199,0.005-0.403-0.079-0.586l-2.878-6.199l0.341-0.213l3.747,7.052c0.175,0.329,0.517,0.531,0.883,0.531    c0.041,0,0.083-0.003,0.124-0.008l4-0.5c0.5-0.063,0.876-0.488,0.876-0.992v-6l2.6-1.95c0.204-0.153,0.342-0.379,0.385-0.63    l0.015-0.089l0.739-4.285c0.16-0.039,0.321-0.076,0.485-0.099c0.27-0.038,0.579-0.077,0.824-0.077    c0.137,0,0.189,0.013,0.191,0.013c0.206,0.071,0.532,0.274,0.877,0.488c0.753,0.467,1.69,1.049,2.769,1.119    c0.137,0.009,0.276,0.013,0.415,0.013c0.294,0,0.59-0.021,0.88-0.062c2.195-0.31,4.079-1.785,4.934-3.856    c0.064-0.132,0.1-0.28,0.1-0.436C92.306,16.724,91.862,16.277,91.311,16.276z M11.479,63.455v-0.007c0,0,0,0,0,0L11.479,63.455z"/></g></g></svg>
